<?xml version="1.0" encoding="UTF-8"?>
<svg version="1.1" xmlns="http://www.w3.org/2000/svg" width="512" height="512">
<path d="M0 0 C3.79008339 -0.00072233 7.5801634 -0.00287806 11.37024593 -0.00549722 C24.00024162 -0.01420344 36.63022732 -0.01892618 49.26022521 -0.01816674 C49.93225386 -0.01812679 50.60428252 -0.01808683 51.29667568 -0.01804566 C51.96956972 -0.01800478 52.64246376 -0.0179639 53.33574852 -0.01792178 C64.2495236 -0.01751496 75.16326425 -0.02711169 86.07702938 -0.04118403 C97.41818398 -0.05568682 108.75931671 -0.06226546 120.1004827 -0.06159025 C126.41399654 -0.06133893 132.72747106 -0.0639836 139.04097652 -0.0747683 C249.76445384 -0.25076006 249.76445384 -0.25076006 268.40605068 17.16725707 C274.37083983 24.46069594 275.73276862 32.32406896 276.46855068 41.47975707 C276.5855331 42.7994348 276.5855331 42.7994348 276.70487881 44.1457727 C278.00062263 59.27706216 278.57335599 74.33734043 278.60917568 89.51881957 C278.61615881 91.36319539 278.62319973 93.207571 278.63029385 95.0519464 C278.64968925 100.96538606 278.65447596 106.87878911 278.65605068 112.79225707 C278.65693439 114.3055642 278.65693439 114.3055642 278.65783596 115.8494432 C278.67796194 164.69549376 277.94657126 213.6848545 271.40605068 262.16725707 C271.25555264 263.29824828 271.10505459 264.42923949 270.94999599 265.59450316 C269.30733221 277.51197454 266.82504012 289.17156896 263.96855068 300.85475707 C263.69228848 301.9892932 263.41602627 303.12382934 263.13139248 304.29274535 C258.38920908 322.9140562 251.34666229 340.63221208 234.65605068 351.47975707 C208.58905983 366.00164549 174.0537522 360.1686332 145.52955532 358.81593871 C134.55298055 358.29628273 123.5776348 357.86608745 112.59355068 357.54225707 C111.905574 357.52188384 111.21759731 357.50151061 110.50877285 357.48052001 C106.80798073 357.37175906 103.10709022 357.26723025 99.40605068 357.16725707 C99.73605068 358.15725707 100.06605068 359.14725707 100.40605068 360.16725707 C100.51481834 362.70912977 100.57008325 365.22268932 100.57401943 367.76491332 C100.57734783 368.51381331 100.58067623 369.26271331 100.58410549 370.03430724 C100.58916828 371.62215603 100.59151402 373.21001545 100.59135342 374.7978723 C100.5935207 377.19657692 100.61162926 379.59480686 100.63066006 381.99342895 C100.69874778 400.58186287 100.69874778 400.58186287 97.40605068 407.16725707 C98.66159756 407.20463988 99.91714443 407.2420227 101.21073818 407.28053832 C125.95265581 408.18006469 125.95265581 408.18006469 133.40605068 416.16725707 C136.60642447 421.21947919 138.29646311 426.15697316 137.40605068 432.16725707 C135.51630453 437.14931511 133.62685292 439.39686103 128.96855068 441.97975707 C117.39615425 446.95695599 104.71351864 446.46206738 92.35356045 446.44191527 C90.57142329 446.4462719 88.78928799 446.45145818 87.00715542 446.45740294 C82.20339801 446.47070053 77.39971971 446.4713821 72.5959475 446.46883965 C68.57037672 446.46776384 64.54482156 446.47266868 60.51925415 446.47744507 C51.01560589 446.48850783 41.51199717 446.48899561 32.0083456 446.4829309 C22.23635224 446.47689046 12.46450284 446.48921139 2.69253403 446.51050097 C-5.7291179 446.52816733 -14.1507242 446.53411049 -22.57239395 446.53086323 C-27.58837689 446.52905859 -32.60425706 446.53160435 -37.62022305 446.54557776 C-42.33915464 446.55823416 -47.05786306 446.55613881 -51.77679157 446.54316688 C-53.4979717 446.54081864 -55.21916792 446.54347205 -56.94032955 446.55179 C-84.36127477 446.67464644 -84.36127477 446.67464644 -94.59394932 439.16725707 C-98.12125669 435.55176701 -98.87883686 432.63701 -99.09394932 427.72975707 C-98.87396306 422.66319853 -98.09540985 418.93427781 -94.59394932 415.16725707 C-86.36287503 408.33837907 -77.36443138 407.86703887 -67.09394932 408.04225707 C-66.08074619 408.05128051 -65.06754307 408.06030395 -64.02363682 408.06960082 C-61.54682131 408.092967 -59.07051552 408.12572539 -56.59394932 408.16725707 C-57.08314854 406.48309691 -57.08314854 406.48309691 -57.58223057 404.76491332 C-59.10066571 397.91520282 -58.85553618 390.95052797 -58.79975986 383.97414184 C-58.78146482 381.60676334 -58.77925104 379.23977722 -58.77949619 376.8723352 C-58.7745805 375.34433708 -58.76875196 373.81634156 -58.76191807 372.28835082 C-58.76080524 371.59229232 -58.75969242 370.89623382 -58.75854588 370.17908263 C-58.71336391 365.42656014 -58.2523193 360.86450527 -57.59394932 356.16725707 C-58.54026218 356.17020278 -58.54026218 356.17020278 -59.50569248 356.173208 C-80.2194243 356.22760186 -100.92943333 356.07778195 -121.64180088 355.84987426 C-125.29086076 355.81017676 -128.9399161 355.77560932 -132.58906651 355.74538207 C-137.09540463 355.70801139 -141.60157119 355.6616172 -146.10775852 355.60919356 C-147.78817867 355.5910381 -149.46863364 355.575797 -151.14910984 355.56391311 C-160.21210835 355.49732054 -169.18175515 355.14059424 -178.20527744 354.25856566 C-179.00974056 354.18063088 -179.81420368 354.1026961 -180.64304447 354.02239966 C-196.67396107 352.32277601 -213.4462671 348.80940859 -224.90644932 336.72975707 C-234.35226532 322.38611055 -232.70349903 301.74920266 -232.91035557 285.23756957 C-232.93143505 283.77227554 -232.95270752 282.30698427 -232.97415257 280.84169555 C-233.04280851 275.99197024 -233.10082464 271.1421474 -233.15644932 266.29225707 C-233.16620037 265.44886527 -233.17595142 264.60547347 -233.18599796 263.73652434 C-233.32736578 251.36645743 -233.44005161 238.99621284 -233.54066563 226.62575316 C-233.57659996 222.21069226 -233.61495377 217.79566106 -233.65504551 213.38063598 C-234.59769842 108.65411152 -234.59769842 108.65411152 -231.34394932 73.29225707 C-231.24152927 72.17312926 -231.13910923 71.05400146 -231.03358555 69.90096068 C-226.97617372 27.5595821 -226.97617372 27.5595821 -213.35957432 16.32350707 C-203.19215558 9.62943014 -192.43896425 6.28457297 -180.38301182 5.12819457 C-179.54924519 5.04710952 -178.71547855 4.96602447 -177.85644627 4.88248229 C-163.25220226 3.58380132 -148.56396505 3.23185095 -133.91621494 2.69753051 C-130.66920322 2.57750478 -127.4224552 2.4511163 -124.17569977 2.32437468 C-82.77853563 0.71449107 -41.42894223 0.00445916 0 0 Z " fill="#050708" transform="translate(233.59394931793213,32.83274292945862)"/>
<path d="M0 0 C3.79008339 -0.00072233 7.5801634 -0.00287806 11.37024593 -0.00549722 C24.00024162 -0.01420344 36.63022732 -0.01892618 49.26022521 -0.01816674 C49.93225386 -0.01812679 50.60428252 -0.01808683 51.29667568 -0.01804566 C51.96956972 -0.01800478 52.64246376 -0.0179639 53.33574852 -0.01792178 C64.2495236 -0.01751496 75.16326425 -0.02711169 86.07702938 -0.04118403 C97.41818398 -0.05568682 108.75931671 -0.06226546 120.1004827 -0.06159025 C126.41399654 -0.06133893 132.72747106 -0.0639836 139.04097652 -0.0747683 C249.76445384 -0.25076006 249.76445384 -0.25076006 268.40605068 17.16725707 C274.37083983 24.46069594 275.73276862 32.32406896 276.46855068 41.47975707 C276.5855331 42.7994348 276.5855331 42.7994348 276.70487881 44.1457727 C278.00062263 59.27706216 278.57335599 74.33734043 278.60917568 89.51881957 C278.61615881 91.36319539 278.62319973 93.207571 278.63029385 95.0519464 C278.64968925 100.96538606 278.65447596 106.87878911 278.65605068 112.79225707 C278.65693439 114.3055642 278.65693439 114.3055642 278.65783596 115.8494432 C278.67796194 164.69549376 277.94657126 213.6848545 271.40605068 262.16725707 C271.25555264 263.29824828 271.10505459 264.42923949 270.94999599 265.59450316 C269.30733221 277.51197454 266.82504012 289.17156896 263.96855068 300.85475707 C263.69228848 301.9892932 263.41602627 303.12382934 263.13139248 304.29274535 C258.38920908 322.9140562 251.34666229 340.63221208 234.65605068 351.47975707 C208.58905983 366.00164549 174.0537522 360.1686332 145.52955532 358.81593871 C134.55298055 358.29628273 123.5776348 357.86608745 112.59355068 357.54225707 C111.905574 357.52188384 111.21759731 357.50151061 110.50877285 357.48052001 C106.80798073 357.37175906 103.10709022 357.26723025 99.40605068 357.16725707 C99.73605068 358.15725707 100.06605068 359.14725707 100.40605068 360.16725707 C100.51481834 362.70912977 100.57008325 365.22268932 100.57401943 367.76491332 C100.57734783 368.51381331 100.58067623 369.26271331 100.58410549 370.03430724 C100.58916828 371.62215603 100.59151402 373.21001545 100.59135342 374.7978723 C100.5935207 377.19657692 100.61162926 379.59480686 100.63066006 381.99342895 C100.69874778 400.58186287 100.69874778 400.58186287 97.40605068 407.16725707 C98.66159756 407.20463988 99.91714443 407.2420227 101.21073818 407.28053832 C125.95265581 408.18006469 125.95265581 408.18006469 133.40605068 416.16725707 C136.60642447 421.21947919 138.29646311 426.15697316 137.40605068 432.16725707 C135.51630453 437.14931511 133.62685292 439.39686103 128.96855068 441.97975707 C117.39615425 446.95695599 104.71351864 446.46206738 92.35356045 446.44191527 C90.57142329 446.4462719 88.78928799 446.45145818 87.00715542 446.45740294 C82.20339801 446.47070053 77.39971971 446.4713821 72.5959475 446.46883965 C68.57037672 446.46776384 64.54482156 446.47266868 60.51925415 446.47744507 C51.01560589 446.48850783 41.51199717 446.48899561 32.0083456 446.4829309 C22.23635224 446.47689046 12.46450284 446.48921139 2.69253403 446.51050097 C-5.7291179 446.52816733 -14.1507242 446.53411049 -22.57239395 446.53086323 C-27.58837689 446.52905859 -32.60425706 446.53160435 -37.62022305 446.54557776 C-42.33915464 446.55823416 -47.05786306 446.55613881 -51.77679157 446.54316688 C-53.4979717 446.54081864 -55.21916792 446.54347205 -56.94032955 446.55179 C-84.36127477 446.67464644 -84.36127477 446.67464644 -94.59394932 439.16725707 C-98.12125669 435.55176701 -98.87883686 432.63701 -99.09394932 427.72975707 C-98.87396306 422.66319853 -98.09540985 418.93427781 -94.59394932 415.16725707 C-86.36287503 408.33837907 -77.36443138 407.86703887 -67.09394932 408.04225707 C-66.08074619 408.05128051 -65.06754307 408.06030395 -64.02363682 408.06960082 C-61.54682131 408.092967 -59.07051552 408.12572539 -56.59394932 408.16725707 C-57.08314854 406.48309691 -57.08314854 406.48309691 -57.58223057 404.76491332 C-59.10066571 397.91520282 -58.85553618 390.95052797 -58.79975986 383.97414184 C-58.78146482 381.60676334 -58.77925104 379.23977722 -58.77949619 376.8723352 C-58.7745805 375.34433708 -58.76875196 373.81634156 -58.76191807 372.28835082 C-58.76080524 371.59229232 -58.75969242 370.89623382 -58.75854588 370.17908263 C-58.71336391 365.42656014 -58.2523193 360.86450527 -57.59394932 356.16725707 C-58.54026218 356.17020278 -58.54026218 356.17020278 -59.50569248 356.173208 C-80.2194243 356.22760186 -100.92943333 356.07778195 -121.64180088 355.84987426 C-125.29086076 355.81017676 -128.9399161 355.77560932 -132.58906651 355.74538207 C-137.09540463 355.70801139 -141.60157119 355.6616172 -146.10775852 355.60919356 C-147.78817867 355.5910381 -149.46863364 355.575797 -151.14910984 355.56391311 C-160.21210835 355.49732054 -169.18175515 355.14059424 -178.20527744 354.25856566 C-179.00974056 354.18063088 -179.81420368 354.1026961 -180.64304447 354.02239966 C-196.67396107 352.32277601 -213.4462671 348.80940859 -224.90644932 336.72975707 C-234.35226532 322.38611055 -232.70349903 301.74920266 -232.91035557 285.23756957 C-232.93143505 283.77227554 -232.95270752 282.30698427 -232.97415257 280.84169555 C-233.04280851 275.99197024 -233.10082464 271.1421474 -233.15644932 266.29225707 C-233.16620037 265.44886527 -233.17595142 264.60547347 -233.18599796 263.73652434 C-233.32736578 251.36645743 -233.44005161 238.99621284 -233.54066563 226.62575316 C-233.57659996 222.21069226 -233.61495377 217.79566106 -233.65504551 213.38063598 C-234.59769842 108.65411152 -234.59769842 108.65411152 -231.34394932 73.29225707 C-231.24152927 72.17312926 -231.13910923 71.05400146 -231.03358555 69.90096068 C-226.97617372 27.5595821 -226.97617372 27.5595821 -213.35957432 16.32350707 C-203.19215558 9.62943014 -192.43896425 6.28457297 -180.38301182 5.12819457 C-179.54924519 5.04710952 -178.71547855 4.96602447 -177.85644627 4.88248229 C-163.25220226 3.58380132 -148.56396505 3.23185095 -133.91621494 2.69753051 C-130.66920322 2.57750478 -127.4224552 2.4511163 -124.17569977 2.32437468 C-82.77853563 0.71449107 -41.42894223 0.00445916 0 0 Z M-149.59394932 14.16725707 C-150.411614 14.21026317 -151.22927868 14.25326926 -152.07172108 14.29757857 C-156.65553775 14.54077506 -161.2385506 14.79487498 -165.82083225 15.06550002 C-167.79097141 15.18159482 -169.76136497 15.2933479 -171.7317667 15.40489745 C-185.28653406 16.25285523 -200.06020077 17.9979623 -209.90644932 28.35475707 C-215.00412035 34.97328023 -216.75767661 42.22494104 -218.07051182 50.36256957 C-218.19891956 51.15368636 -218.32732731 51.94480315 -218.4596262 52.75989318 C-225.3081112 95.92617439 -224.04227915 139.58516368 -223.62270451 183.13638091 C-223.5825996 187.36354844 -223.54522223 191.59073887 -223.50769997 195.81792998 C-223.25450082 224.26832199 -222.94673177 252.71793319 -222.59394932 281.16725707 C-211.46787761 281.32882645 -200.61306889 281.02062925 -189.54162312 279.90246177 C-160.17329478 277.05075028 -130.55695308 277.75081102 -101.08501363 277.83809364 C-95.56176059 277.85344601 -90.03860659 277.8562535 -84.51533604 277.85158324 C-54.19892282 277.8267458 -23.93120214 277.83708047 6.35233974 279.42864013 C28.11086994 280.55479987 49.88592471 280.58346541 71.66905117 280.70985961 C81.71948166 280.76934149 91.76980996 280.84336739 101.82011318 280.92116332 C102.89247408 280.92911736 103.96483498 280.93707141 105.06969166 280.94526649 C116.34627264 281.03171033 127.60445165 281.16124413 138.87089443 281.68288207 C158.06973944 282.55800315 177.30635131 282.3544174 196.52055264 282.3525598 C202.2645719 282.35245666 208.00847175 282.36630366 213.75246239 282.38333201 C218.20560176 282.39441549 222.65871138 282.39648043 227.11186314 282.39595008 C229.23257847 282.39712818 231.35329463 282.40154043 233.47399616 282.40928245 C236.41359517 282.41904289 239.35292223 282.41622411 242.29252529 282.41017699 C243.16144909 282.4157965 244.03037289 282.42141601 244.92562771 282.4272058 C245.7251083 282.42301131 246.52458889 282.41881682 247.34829617 282.41449523 C248.03960093 282.41504 248.7309057 282.41558476 249.4431591 282.41614604 C251.83107266 282.11336551 253.37843347 281.46171246 255.40605068 280.16725707 C257.96388084 275.36571625 258.90171852 271.18446508 259.46464443 265.74147582 C259.5411372 265.02038131 259.61762997 264.29928679 259.6964407 263.55634093 C260.77931507 253.0464859 261.60865234 242.5096402 262.46855068 231.97975707 C262.72850684 228.80307835 262.98937627 225.62648933 263.25332546 222.45013976 C263.41598035 220.49258145 263.57639656 218.53483537 263.73419094 216.57687926 C264.02571706 213.06657115 264.32405265 209.62547265 264.94486904 206.15627074 C265.61672345 201.80184327 265.62293793 197.47366584 265.68730068 193.07350707 C265.71491482 191.59968566 265.71491482 191.59968566 265.74308681 190.09609008 C265.8015851 186.95320435 265.85433587 183.81026119 265.90605068 180.66725707 C265.97528399 176.57343305 266.04780423 172.47969266 266.12480068 168.38600707 C266.1535931 166.85185149 266.1535931 166.85185149 266.18296719 165.28670287 C266.32225974 158.55742242 266.58390523 151.84236203 266.92167568 145.12038207 C267.49119649 133.55259131 267.64739745 121.99809197 267.65605068 110.41725707 C267.6573901 109.34327666 267.65872952 108.26929626 267.66010952 107.16277099 C267.65550661 89.86263918 267.09135386 72.62521017 266.09355068 55.35475707 C266.00527004 53.73192809 266.00527004 53.73192809 265.91520596 52.07631469 C265.74439026 49.01556433 265.55385656 45.95678644 265.35526943 42.89772582 C265.30511181 41.9969078 265.25495419 41.09608977 265.20327663 40.16797423 C264.74960409 33.8130069 263.48198645 29.34965108 258.96855068 24.60475707 C248.98762877 16.90235827 234.62547036 13.98412954 222.38261318 12.51173949 C221.34375973 12.38555582 220.30490627 12.25937215 219.23457241 12.12936473 C207.42464764 10.80120393 195.65276874 10.68782858 183.78105068 10.65553832 C181.3204355 10.63832386 178.85982836 10.61992642 176.39923 10.60045409 C170.46688923 10.55707392 164.53457891 10.52712324 158.60213107 10.50456476 C153.73342636 10.48589171 148.86477207 10.46199856 143.99610806 10.43474364 C128.6161214 10.34910335 113.2361575 10.28020663 97.85602534 10.22689998 C87.10712215 10.18930608 76.35842334 10.13543717 65.60966396 10.06862426 C-6.20493312 9.6267968 -77.86053213 10.38917128 -149.59394932 14.16725707 Z " fill="#020202" transform="translate(233.59394931793213,32.83274292945862)"/>
<path d="M0 0 C10.8036517 0.06704286 21.60727156 0.11571323 32.41106486 0.15315855 C47.75280331 0.20657488 63.09436151 0.27923591 78.43595141 0.36511856 C83.27840134 0.3917346 88.12085417 0.41242415 92.96334147 0.43083799 C99.46599273 0.45590659 105.96843054 0.49718877 112.470927 0.54864728 C114.83583064 0.56519215 117.20077328 0.57704296 119.56572604 0.58347547 C131.36441612 0.61879242 142.98368801 1.00804413 154.70452189 2.43807065 C155.66691783 2.55486079 156.62931376 2.67165092 157.62087321 2.79198015 C170.29711356 4.50001229 185.14234849 7.99357938 194.16545939 17.71077573 C196.24202943 20.86716219 196.85766767 23.5134084 197.11687541 27.20686948 C197.17684199 28.04498167 197.23680858 28.88309385 197.29859233 29.74660337 C197.35907252 30.66290525 197.41955272 31.57920713 197.48186564 32.52327573 C197.54722011 33.49065671 197.61257457 34.4580377 197.67990947 35.45473325 C197.8914542 38.6646249 198.09279143 41.87500044 198.29045939 45.08577573 C198.39275859 46.73797117 198.39275859 46.73797117 198.49712443 48.42354429 C199.54179014 65.73256368 200.01034583 82.99617716 199.97795939 100.33577573 C199.97700267 101.37330991 199.97604594 102.41084409 199.97506022 103.4798187 C199.95033783 114.94372 199.67871746 126.36999182 199.10276103 137.81921995 C198.77603486 144.47157595 198.59169478 151.11785498 198.48186564 157.77718198 C198.45686488 159.24189435 198.45686488 159.24189435 198.43135905 160.73619688 C198.3657019 164.70055851 198.30342485 168.66491448 198.25115275 172.6294769 C198.07283689 185.65294126 197.36801491 198.47060789 195.99788737 211.42149961 C195.52600369 216.07914366 195.14997717 220.74466276 194.76311564 225.40999448 C194.60156509 227.30131834 194.4394564 229.19259461 194.27678752 231.08382261 C194.03019532 233.95085803 193.78682137 236.81797735 193.55339885 239.68611753 C193.32068387 242.53251111 193.07436032 245.3774625 192.82561564 248.22249448 C192.75987849 249.06744977 192.69414134 249.91240507 192.62641215 250.78296506 C191.2067681 266.49507553 191.2067681 266.49507553 185.72795939 271.08577573 C182.35950561 272.77000263 178.54600594 272.22372943 174.84148479 272.21517026 C173.91895915 272.21692258 172.99643352 272.2186749 172.04595256 272.22048032 C168.97248813 272.22490557 165.89908074 272.22195252 162.82561564 272.21858823 C160.67355153 272.21926251 158.52148749 272.22023357 156.36942363 272.2214874 C151.83389896 272.22296643 147.2983939 272.22080854 142.7628715 272.21614683 C137.02942748 272.21053347 131.29603072 272.21376448 125.56258845 272.21959245 C85.12233925 272.25443945 85.12233925 272.25443945 68.21317363 271.46689451 C56.86011162 270.97343717 45.50393893 270.92373363 34.14202189 270.83968198 C32.52942265 270.82720804 32.52942265 270.82720804 30.88424563 270.81448209 C20.80486411 270.73689881 10.72543878 270.66745435 0.64592814 270.60896909 C-20.90644345 270.480929 -42.42781309 270.34034501 -63.95410848 269.20902479 C-94.13823481 267.62485945 -124.336029 267.7465468 -154.55241883 267.77209657 C-160.07928953 267.77556967 -165.60603525 267.76596212 -171.13288045 267.74959409 C-215.28884379 267.37006231 -215.28884379 267.37006231 -259.33316731 270.03442991 C-269.68470619 271.07873418 -279.87316788 271.23678495 -290.27204061 271.08577573 C-290.63835481 241.54521445 -290.95262677 212.0043401 -291.21485066 182.46266782 C-291.25147345 178.3429012 -291.28954078 174.22315308 -291.32923055 170.10341489 C-292.16320189 83.04805774 -292.16320189 83.04805774 -287.27204061 50.08577573 C-287.13644734 49.1650427 -287.00085408 48.24430967 -286.86115193 47.29567564 C-286.41359375 44.35002584 -285.9344817 41.41126683 -285.44391561 38.47249448 C-285.30391133 37.57102186 -285.16390706 36.66954923 -285.01966023 35.74075925 C-283.49539369 27.1072136 -280.1794283 19.81088117 -273.13141561 14.35921323 C-261.96385176 6.71083967 -248.48141439 5.69550524 -235.27204061 5.03108823 C-233.89488926 4.9546678 -232.51777451 4.87758554 -231.14069295 4.79991758 C-227.33348345 4.5894741 -223.52558088 4.39617505 -219.71723104 4.20761716 C-217.22394519 4.08337919 -214.73089653 3.95504404 -212.23786092 3.82588804 C-141.49226318 0.18392001 -70.81995217 -0.44020776 0 0 Z M50.52336955 8.12843931 C49.65266511 8.13191086 48.78196067 8.13538242 47.88487124 8.13895917 C46.09605227 8.14607717 44.30723328 8.15318958 42.51841426 8.16029656 C24.37334111 8.23309132 6.22839576 8.32426424 -11.91654134 8.42515218 C-13.89164915 8.43613364 -15.86675698 8.44711297 -17.84186482 8.45809019 C-18.82205523 8.46354309 -19.80224565 8.468996 -20.8121388 8.47461414 C-28.83974826 8.51892567 -36.86737586 8.55876453 -44.89501262 8.59776765 C-52.78528807 8.63633044 -60.67554136 8.67825702 -68.56578612 8.72265428 C-73.21590548 8.74875487 -77.86602174 8.77359141 -82.51616597 8.79484975 C-101.54117277 8.88300565 -120.52009294 9.10389516 -139.52836347 9.97435796 C-144.31761748 10.1688444 -149.10890198 10.26870217 -153.90094686 10.36702573 C-155.3476295 10.39702334 -155.3476295 10.39702334 -156.82353806 10.42762697 C-160.43220283 10.50132912 -164.04093041 10.57104738 -167.64972615 10.63802183 C-170.40021563 10.69001235 -173.15056857 10.74699045 -175.90094686 10.80452573 C-177.11978314 10.82488889 -177.11978314 10.82488889 -178.36324239 10.84566343 C-183.03454886 10.94626043 -187.60413668 11.30405643 -192.24251485 11.86186826 C-194.8214317 12.14638732 -197.37774381 12.22848675 -199.97125936 12.26155698 C-201.443691 12.29732847 -201.443691 12.29732847 -202.94586873 12.33382261 C-204.96648161 12.37703727 -206.98738709 12.40815254 -209.00836873 12.42757261 C-215.0348116 12.59839465 -218.70713552 13.01737818 -223.27204061 17.08577573 C-226.07637125 21.72742646 -227.34016571 25.93071145 -227.51813436 31.30452573 C-227.5655074 32.55858213 -227.5655074 32.55858213 -227.61383748 33.837973 C-227.64541951 34.7447479 -227.67700154 35.6515228 -227.70954061 36.58577573 C-228.28532096 51.00834169 -229.23656936 65.4284026 -230.5137074 79.80646932 C-231.19672098 87.83908392 -231.41496065 95.79656408 -231.40143514 103.85555112 C-231.40318746 105.16465955 -231.40493978 106.47376798 -231.4067452 107.82254636 C-231.41125411 111.37206549 -231.40955738 114.92155514 -231.40636611 118.4710747 C-231.40380886 122.21035382 -231.40618927 125.94963065 -231.40775228 129.68890989 C-231.40956401 135.96353703 -231.40719368 142.23815235 -231.4024117 148.51277769 C-231.39696863 155.73768536 -231.3987361 162.96256481 -231.4042381 170.18747181 C-231.40879488 176.42396572 -231.40940735 182.66045121 -231.40679944 188.89694625 C-231.40525103 192.60720818 -231.40500314 196.3174569 -231.40833592 200.02771795 C-231.41179538 204.16696024 -231.40698318 208.30615484 -231.40143514 212.44539487 C-231.40345937 213.65352842 -231.4054836 214.86166196 -231.40756917 216.10640562 C-232.0610815 231.93134848 -232.0610815 231.93134848 -226.27204061 246.08577573 C-220.70532063 250.62113191 -214.70951457 251.20000803 -207.77555013 251.26927793 C-206.46004548 251.28484361 -205.14454083 251.30040929 -203.78917241 251.31644666 C-202.33733586 251.32895236 -200.88549894 251.34141611 -199.4336617 251.35384214 C-197.8998088 251.37054612 -196.36596099 251.38772316 -194.83211827 251.40533674 C-191.52314875 251.44260912 -188.21416621 251.47719345 -184.90514684 251.50973737 C-176.84194566 251.58954362 -168.77892967 251.68567433 -160.71589375 251.78050673 C-157.89398148 251.8136142 -155.07206393 251.84624631 -152.25014615 251.8788799 C-124.00733872 252.20852304 -95.76671419 252.68242551 -67.5265305 253.18580854 C-57.86252944 253.35793329 -48.19846037 253.52170462 -38.53414333 253.67510009 C-31.51537317 253.78720742 -24.49680363 253.90882799 -17.47831023 254.03708172 C-13.37328181 254.11186062 -9.26828653 254.18308732 -5.16302037 254.24356306 C12.5473527 254.50756783 30.08757436 255.21712159 47.71485782 257.02025259 C59.22612813 258.19657519 70.66395561 258.62890744 82.22795939 258.77327573 C84.10167659 258.80671749 85.97537502 258.84122752 87.84905314 258.87679136 C92.30416209 258.95743883 96.75906812 259.01519522 101.21468425 259.05876768 C103.69739747 259.08544731 106.17974208 259.12401952 108.66228557 259.16316831 C110.18807577 259.17972667 111.71387325 259.19563166 113.23967814 259.21077573 C113.92336467 259.22376203 114.60705119 259.23674833 115.31145549 259.25012815 C122.22674472 259.29097635 126.88900287 257.47647596 132.10295939 253.08577573 C137.56814941 242.99619416 137.19803057 231.50047802 137.23967814 220.34749448 C137.25674784 218.58388226 137.27500601 216.82028122 137.29435039 215.05669248 C137.34265145 210.28983105 137.37235662 205.52302233 137.39791942 200.75599134 C137.42148944 196.74785197 137.45535186 192.73982458 137.48902965 188.73175943 C137.60470987 174.84991227 137.6734654 160.96798275 137.72795939 147.08577573 C137.73229739 146.00152814 137.73663539 144.91728055 137.74110484 143.80017698 C137.80020282 128.77309349 137.83667563 113.74606006 137.850003 98.71886671 C137.8529262 95.68275128 137.857088 92.64663929 137.86135173 89.61052549 C137.8750784 77.87826142 137.84852858 66.14714285 137.74683452 54.41528165 C137.72859382 52.16407445 137.71583072 49.91289071 137.70391154 47.66164243 C137.67967246 43.76969123 137.61079128 39.87938505 137.53264689 35.98811948 C137.52480678 34.36046407 137.52480678 34.36046407 137.51680827 32.69992673 C137.31505729 25.57626012 135.71772217 20.05224063 131.72795939 14.08577573 C124.83357084 8.09065525 117.23783185 7.79286686 108.53850627 7.87508237 C107.50977901 7.87669055 106.48105174 7.87829874 105.42115092 7.87995565 C101.92956571 7.88803034 98.43822842 7.91078231 94.94670939 7.93343198 C92.3991455 7.94263998 89.85157842 7.95099862 87.3040092 7.95859373 C81.60722767 7.97718314 75.91052378 8.00389027 70.21379924 8.03529966 C63.6503387 8.07146174 57.08687777 8.10230396 50.52336955 8.12843931 Z " fill="#F1F1F1" transform="translate(301.27204060554504,42.91422426700592)"/>
<path d="M0 0 C0.02365048 19.93656963 0.04113343 39.8731363 0.05181217 59.80971718 C0.05690836 69.07236841 0.06384899 78.33501069 0.07543945 87.59765625 C0.1629624 159.06940752 0.1629624 159.06940752 -0.44140625 186.4609375 C-0.46093794 187.37514088 -0.48046963 188.28934425 -0.50059319 189.23125076 C-0.70047076 198.18400491 -0.98929732 207.0941363 -2 216 C-25.91669679 216.07508416 -49.82801326 215.89072268 -73.74316406 215.62768555 C-77.74054044 215.58381904 -81.73792965 215.54218318 -85.73535156 215.50268555 C-97.3333798 215.3877183 -108.93075158 215.25022382 -120.52807617 215.07794189 C-124.14993442 215.02456568 -127.77174603 214.97945517 -131.39379883 214.94158936 C-135.61228522 214.89673132 -139.83005736 214.83280918 -144.0480423 214.75401115 C-145.58543561 214.72830632 -147.12295403 214.70909441 -148.66051483 214.69702339 C-165.44410495 214.55589505 -165.44410495 214.55589505 -171.875 208.125 C-175.43728526 201.39623896 -175.27876208 195.10624349 -175.24291992 187.66186523 C-175.24481827 186.42010025 -175.24671661 185.17833527 -175.24867249 183.89894104 C-175.25174 180.49654039 -175.24586784 177.09438339 -175.23571944 173.69201159 C-175.22687756 170.09945011 -175.22869787 166.50689205 -175.2290802 162.9143219 C-175.22814338 156.85749141 -175.21947324 150.80071095 -175.20581055 144.74389648 C-175.19024821 137.82109751 -175.18480687 130.89835389 -175.1855461 123.97553867 C-175.18623297 116.52913481 -175.17921165 109.0827513 -175.1700995 101.63635373 C-175.16800627 99.53378227 -175.16726354 97.43121429 -175.16686058 95.32864189 C-175.13822021 18.33096749 -175.13822021 18.33096749 -166.40869141 9.36572266 C-162.83385436 7.33879802 -159.28850349 7.55876491 -155.28515625 7.55859375 C-153.97787315 7.53986961 -153.97787315 7.53986961 -152.6441803 7.52076721 C-150.76377637 7.49470594 -148.88327738 7.47490744 -147.00274658 7.46069336 C-142.03126812 7.42147716 -137.06068515 7.33281775 -132.08984375 7.24609375 C-130.57577942 7.22100235 -130.57577942 7.22100235 -129.03112793 7.19540405 C-119.04986932 7.0146073 -109.09150747 6.55709772 -99.125 6 C-98.34327423 5.95793427 -97.56154846 5.91586853 -96.75613403 5.87252808 C-88.43385827 5.51508016 -88.43385827 5.51508016 -80.17892456 4.51246643 C-77.02677464 4.00431627 -73.94319617 3.72544612 -70.7578125 3.51928711 C-69.542146 3.43927963 -68.32647949 3.35927216 -67.07397461 3.27684021 C-65.11923218 3.15333946 -65.11923218 3.15333946 -63.125 3.02734375 C-61.7546297 2.93923147 -60.38426852 2.85097716 -59.01391602 2.7625885 C-56.14270679 2.57816346 -53.2713597 2.39609505 -50.39990234 2.21557617 C-46.76009142 1.9864788 -43.12075596 1.7506206 -39.48150635 1.51279354 C-36.64857568 1.32861247 -33.81538841 1.14864045 -30.9821167 0.96978951 C-29.00044469 0.8438442 -27.01901582 0.7140911 -25.03759766 0.58421326 C-23.79671387 0.50735794 -22.55583008 0.43050262 -21.27734375 0.35131836 C-19.67234009 0.24925331 -19.67234009 0.24925331 -18.03491211 0.14512634 C-12.03041789 -0.14266887 -6.0094419 -0.02644529 0 0 Z " fill="#717171" transform="translate(252,73)"/>
<path d="M0 0 C4.03326268 0.00900059 8.06652394 0.00701909 12.09979463 0.00663924 C18.84197694 0.00756465 25.5841132 0.01610417 32.32628083 0.0299089 C40.08836027 0.04574443 47.85038997 0.05090217 55.6124844 0.05017334 C63.95757135 0.04949606 72.30263956 0.05643191 80.64772081 0.06561995 C83.0250993 0.06773707 85.40247472 0.06845908 87.77985406 0.06885886 C91.51729645 0.06987018 95.25469788 0.07603046 98.9921267 0.086025 C100.99717373 0.09028759 103.00222916 0.08978294 105.00728059 0.08908248 C111.42332547 0.11156642 117.72896268 0.344122 124.11214948 0.99923396 C129.18914754 1.51613159 134.29378429 1.60436614 139.39195466 1.76696944 C141.3093319 1.82926742 141.3093319 1.82926742 143.26544404 1.89282393 C163.16978514 2.50473714 183.08798561 2.58142593 202.99974275 2.76178145 C208.70038583 2.81368467 214.40098334 2.86873402 220.10155892 2.92759871 C222.69465378 2.95321497 225.28775675 2.97456877 227.88089204 2.99560714 C237.40661425 3.08588617 246.91297683 3.35044001 256.43150544 3.73352218 C270.65500549 4.29833901 284.86959476 4.45605316 299.10289216 4.55212569 C301.73231483 4.57277441 304.36173478 4.59377242 306.99115205 4.61509871 C313.12073579 4.66424129 319.25034137 4.70945757 325.37996632 4.75312108 C332.37927514 4.80318152 339.378546 4.85783548 346.37781775 4.91280067 C360.73015019 5.02541031 375.08252043 5.1324939 389.43492341 5.23571944 C389.29140001 6.81969462 389.14358886 8.40328162 388.99400544 9.986696 C388.87123734 11.30954604 388.87123734 11.30954604 388.74598908 12.65912032 C387.16503864 25.75434701 380.73652945 42.57261885 370.86070466 51.48962569 C358.66238649 60.27005761 346.77657816 62.5438083 331.99742341 62.42321944 C330.80585633 62.41423629 329.61428926 62.40525313 328.38661408 62.39599776 C321.09975301 62.32664943 313.81800376 62.20889027 306.53380036 61.9986589 C285.46972201 61.39896018 264.42179314 61.14876744 243.34898591 61.17321944 C242.08243857 61.17464257 240.81589124 61.1760657 239.51096368 61.17753196 C229.04376064 61.19151119 218.57659744 61.21860342 208.10942292 61.24609542 C179.5913956 61.31933735 151.09324368 61.35908062 122.58316255 60.62315536 C109.5637016 60.28833586 96.54807245 60.09600715 83.52476716 59.98962569 C82.1047767 59.97772956 82.1047767 59.97772956 80.65609956 59.9655931 C76.82384158 59.93355945 72.99158017 59.90200757 69.15931153 59.87127471 C11.12520368 59.40266836 11.12520368 59.40266836 -17.06507659 58.36071944 C-18.05838988 58.32737502 -19.05170318 58.2940306 -20.07511687 58.25967574 C-30.0486643 57.91387313 -39.89377703 57.21570127 -49.78382659 55.85290694 C-51.03697661 55.6827658 -51.03697661 55.6827658 -52.3154428 55.50918746 C-62.43046448 53.99806944 -73.73555334 51.73790684 -80.16663909 43.07946944 C-86.90247158 30.9470928 -85.82019549 16.65780851 -85.56507659 3.23571944 C-84.25281096 3.18673507 -82.94054534 3.13775069 -81.58851409 3.08728194 C-73.02551938 2.74889788 -64.46929812 2.40616397 -55.92400908 1.7452867 C-37.25526774 0.30412582 -18.71686922 -0.05086516 0 0 Z " fill="#717171" transform="translate(97.56507658958435,318.76428055763245)"/>
<path d="M0 0 C33.4156229 -0.49681818 66.67250572 0.80468737 100.04285812 2.30304718 C116.35853231 3.03497627 132.67745425 3.63147011 149 4.1875 C150.23970551 4.23001892 151.47941101 4.27253784 152.75668335 4.31634521 C159.50434392 4.5476107 166.25209302 4.77603845 173 5 C173.06971318 36.00007804 173.07782934 66.99992318 173 98 C172.99745964 99.02000847 172.99491928 100.04001694 172.99230194 101.09093475 C172.95999152 113.38682511 172.89859267 125.68206721 172.79147339 137.97753906 C172.76192131 141.43734834 172.74157209 144.89702083 172.72927856 148.35693359 C172.71435731 152.41815939 172.68042602 156.4787859 172.63175392 160.53974342 C172.61712648 162.01250963 172.60896696 163.48535805 172.60809898 164.95819664 C172.59690468 174.44546222 172.07659763 182.93513628 165.9375 190.5625 C162.61659866 193.02639454 159.75266532 193.13221919 155.7512207 193.16113281 C154.67350906 193.17074036 153.59579742 193.1803479 152.48542786 193.19024658 C151.31074448 193.19449646 150.1360611 193.19874634 148.92578125 193.203125 C147.696353 193.20882507 146.46692474 193.21452515 145.20024109 193.22039795 C142.57478155 193.22987021 139.94943665 193.23675088 137.32397461 193.24023438 C133.42869675 193.24660615 129.53382446 193.28061947 125.63867188 193.3125 C112.44780965 193.36718188 99.54202944 192.91723461 86.41796875 191.52734375 C69.0931872 189.69810596 51.83577295 189.44654314 34.42626953 189.33044434 C30.29449464 189.29988633 26.1628924 189.25363112 22.03125 189.20898438 C14.02090755 189.12459388 6.01057688 189.05801514 -2 189 C-2 184.05 -2 179.1 -2 174 C0.14443604 173.98541748 2.28887207 173.97083496 4.49829102 173.95581055 C11.59907685 173.90537817 18.69964539 173.83876798 25.80021763 173.76428509 C30.10352757 173.71963809 34.40674408 173.68036964 38.71020508 173.65356445 C42.86658319 173.62747464 47.02260067 173.58703258 51.17875481 173.53681374 C52.76105181 173.52018328 54.34341114 173.50864526 55.92578316 173.50238609 C58.14955194 173.49270297 60.37240604 173.46459574 62.59594727 173.43237305 C63.85947525 173.42126999 65.12300323 173.41016693 66.42481995 173.39872742 C70.59544976 172.93359156 73.2708451 171.89021936 77 170 C79.5067101 166.84237623 79.32990866 163.43196511 79.375 159.5 C79.40335937 158.3759375 79.43171875 157.251875 79.4609375 156.09375 C79.23620572 152.95858095 79.23620572 152.95858095 77.3515625 150.71875 C71.68908739 146.58006387 65.67115459 146.68231358 58.94140625 146.62109375 C57.96123032 146.60409927 56.98105438 146.5871048 55.97117615 146.56959534 C52.83501654 146.51667269 49.69886191 146.47641748 46.5625 146.4375 C42.48039086 146.37821693 38.39839013 146.3134215 34.31640625 146.24609375 C33.31026276 146.23017181 32.30411926 146.21424988 31.26748657 146.19784546 C20.5027391 146.00857211 9.75268205 145.52999535 -1 145 C-1.13008353 126.51412999 -0.96853293 108.04443185 -0.5625 89.5625 C-0.54285187 88.59500824 -0.52320374 87.62751648 -0.50296021 86.63070679 C-0.44611259 83.87995426 -0.38244208 81.12945174 -0.31640625 78.37890625 C-0.29968872 77.54495331 -0.28297119 76.71100037 -0.26574707 75.85177612 C-0.11495239 70.11495239 -0.11495239 70.11495239 1 69 C2.412277 68.88802113 3.82997301 68.84328275 5.24658203 68.82641602 C6.15328644 68.81292618 7.05999084 68.79943634 7.99417114 68.78553772 C8.98867279 68.77509933 9.98317444 68.76466095 11.0078125 68.75390625 C13.13281512 68.72087131 15.25781503 68.68766183 17.3828125 68.65429688 C20.71676918 68.60760213 24.05072423 68.56339563 27.38476562 68.52319336 C39.17976302 68.37405916 50.9211134 68.07621617 62.6796875 67.08984375 C63.61797394 67.01351212 64.55626038 66.93718048 65.52297974 66.85853577 C71.72136365 66.28900601 77.09728664 64.96757112 83 63 C84.10910894 58.5836509 84.10694132 54.29723748 84.01953125 49.77734375 C84.00540695 48.99484756 83.99128265 48.21235138 83.97673035 47.40614319 C83.94373026 45.75791672 83.90739403 44.10975405 83.86791992 42.46166992 C83.81260999 39.94250964 83.78411416 37.42388641 83.75585938 34.90429688 C83.72041083 33.29944162 83.68335592 31.69462088 83.64453125 30.08984375 C83.64016556 29.33871811 83.63579987 28.58759247 83.63130188 27.81370544 C83.52557138 24.56844976 83.32833642 22.446198 81.37922668 19.79742432 C78.2182991 17.40945173 76.30954406 17.52227424 72.37060547 17.56176758 C71.71308792 17.56278976 71.05557037 17.56381195 70.37812805 17.56486511 C68.20724942 17.57273938 66.03777003 17.60874062 63.8671875 17.64453125 C62.34987503 17.65454307 60.83254872 17.6626257 59.31521606 17.66886902 C55.31733838 17.68980209 51.32005866 17.73383612 47.32244873 17.78363037 C40.94637014 17.85884135 34.56994372 17.89728519 28.19357681 17.93912315 C25.97910209 17.95664036 23.76487234 17.98282309 21.55050659 18.01069641 C14.2877846 18.08760471 7.21267275 17.90543185 0 17 C0 11.39 0 5.78 0 0 Z " fill="#13D8F1" transform="translate(259,101)"/>
<path d="M0 0 C9.70831817 -0.03152098 19.41663943 -0.05128853 29.125 -0.0625 C30.2287818 -0.06378403 30.2287818 -0.06378403 31.35486221 -0.06509399 C56.30281085 -0.09063836 81.24256805 0.11723978 106.1875 0.5 C106.96719398 0.51195782 107.74688797 0.52391563 108.55020905 0.53623581 C118.03361494 0.68243525 127.5168694 0.83684711 137 1 C137.07444911 6.56841139 137.12874318 12.13652964 137.16479492 17.70532227 C137.17983246 19.59762625 137.20026785 21.48989566 137.22631836 23.38208008 C137.26292399 26.11027586 137.2797769 28.83800871 137.29296875 31.56640625 C137.30845261 32.40522842 137.32393646 33.2440506 137.33988953 34.10829163 C137.34156084 40.01117986 136.58317063 45.06738188 132.52734375 49.671875 C123.66710355 55.68029342 113.40365647 57.11212827 102.86572266 57.14526367 C101.85176422 57.15030159 101.85176422 57.15030159 100.81732178 57.15544128 C98.59954953 57.16487687 96.38185354 57.16689144 94.1640625 57.16796875 C92.60053478 57.17118923 91.03700734 57.17455388 89.47348022 57.17805481 C86.19699406 57.18402969 82.92053419 57.18589668 79.64404297 57.18530273 C75.49477408 57.18520185 71.34567915 57.19878482 67.19645119 57.21607494 C63.96344265 57.2273353 60.73047409 57.22921761 57.49744797 57.22869301 C55.97081281 57.2298548 54.44417598 57.23417204 52.91756058 57.24202538 C15.55965038 57.41604191 15.55965038 57.41604191 4.73828125 49.3046875 C-0.12988369 42.85026656 0.57935451 34.60641235 0.375 26.875 C0.33632812 25.72773438 0.29765625 24.58046875 0.2578125 23.3984375 C0.01181865 15.59691838 -0.01566446 7.80484143 0 0 Z " fill="#6C6C6C" transform="translate(185,389)"/>
<path d="M0 0 C47.81143534 -0.56843186 95.47367978 1.04821302 143.125 5.0625 C144.10867554 5.14431519 145.09235107 5.22613037 146.10583496 5.3104248 C148.84496068 5.54232139 151.58273154 5.78574467 154.3203125 6.03515625 C155.10570404 6.10281693 155.89109558 6.1704776 156.70028687 6.2401886 C162.00554117 6.74916164 167.26108819 7.3722086 171.92578125 10.14453125 C173.66902684 13.15559181 173.31026975 16.3160538 173.1875 19.6875 C173.17396484 20.38939453 173.16042969 21.09128906 173.14648438 21.81445312 C173.11120182 23.54329829 173.05739583 25.27174765 173 27 C155.64145297 27.10939554 138.29122705 27.08306418 120.9375 26.625 C119.77651291 26.59445526 119.77651291 26.59445526 118.59207153 26.56329346 C108.88746742 26.29976834 99.19010378 25.9337131 89.4921875 25.48828125 C85.43234901 25.3033979 81.3724611 25.11967155 77.3125 24.9375 C76.30324463 24.89210083 75.29398926 24.84670166 74.25415039 24.79992676 C49.83743635 23.72663258 25.4346999 23.81787801 1 24 C0.67 16.08 0.34 8.16 0 0 Z " fill="#008BE1" transform="translate(258,73)"/>
<path d="M0 0 C1.05203613 -0.01135986 2.10407227 -0.02271973 3.18798828 -0.03442383 C4.09540771 -0.04594482 5.00282715 -0.05746582 5.93774414 -0.06933594 C11.57351514 0.20797547 16.01789481 1.56378895 19.97314453 5.61791992 C23.12423098 10.73843539 22.65694014 15.06959544 22.66064453 20.99291992 C22.67289062 21.9887207 22.68513672 22.98452148 22.69775391 24.01049805 C22.71781641 34.31593728 22.32015614 45.09568712 14.78564453 52.80541992 C8.77055617 57.42053964 1.17018123 57.38736876 -6.08935547 57.30541992 C-6.95979492 57.29865234 -7.83023438 57.29188477 -8.72705078 57.28491211 C-33.48642757 56.89450023 -33.48642757 56.89450023 -41.40185547 49.24291992 C-45.04927781 42.15070981 -44.8930216 34.99839676 -44.90185547 27.18041992 C-44.92634766 26.04733398 -44.95083984 24.91424805 -44.97607422 23.74682617 C-44.9998332 16.91215814 -44.59550675 10.77507545 -40.52685547 5.05541992 C-36.6228694 1.14060989 -33.92311996 0.53846988 -28.46044922 0.44604492 C-27.44834129 0.42124054 -27.44834129 0.42124054 -26.41578674 0.39593506 C-24.2652195 0.34764497 -22.11534583 0.32620711 -19.96435547 0.30541992 C-18.54700193 0.27721872 -17.12968174 0.24728557 -15.71240234 0.21557617 C-10.47524743 0.10637224 -5.237564 0.08230147 0 0 Z " fill="#008CE2" transform="translate(397.52685546875,225.944580078125)"/>
<path d="M0 0 C2 2 2 2 2.5 4.8125 C2 8 2 8 -0.8125 10.8125 C-5.02350649 13.70240642 -7.71304794 14.12664553 -12.69970703 14.15148926 C-14.48216324 14.16400475 -14.48216324 14.16400475 -16.30062866 14.17677307 C-17.60649933 14.18095749 -18.91237 14.18514191 -20.2578125 14.18945312 C-21.64613088 14.19739685 -23.03444679 14.20578491 -24.42276001 14.21458435 C-27.41672035 14.23265405 -30.41067517 14.24766666 -33.40466309 14.26036072 C-38.15685473 14.28063111 -42.90898595 14.30828697 -47.66113281 14.33703613 C-56.91655563 14.39205811 -66.17200766 14.44012994 -75.42747498 14.48697662 C-87.14953702 14.54631942 -98.87158285 14.60707968 -110.59358406 14.67754889 C-114.53391851 14.70101447 -118.47424392 14.72260339 -122.41461182 14.73963928 C-144.38714131 14.81118247 -144.38714131 14.81118247 -166.33520508 15.77130127 C-171.89002143 16.11794535 -177.43571572 16.22082944 -183 16.25 C-184.52173828 16.2809375 -184.52173828 16.2809375 -186.07421875 16.3125 C-194.28825225 16.35456931 -203.11916464 15.73718576 -209.6875 10.3125 C-210.450625 9.549375 -211.21375 8.78625 -212 8 C-212 5.8125 -212 5.8125 -211 3 C-203.60853163 -2.98278045 -196.87637067 -3.24226275 -187.63989258 -3.29516602 C-185.65617172 -3.31171839 -183.67273245 -3.35538429 -181.68945312 -3.40039062 C-173.9233604 -3.49134787 -166.53329091 -2.83933241 -158.86741638 -1.5741272 C-140.67976402 1.41121504 -122.78000065 1.64951475 -104.39160156 1.57641602 C-100.79682076 1.56265321 -97.2031014 1.56964311 -93.60839844 1.59692383 C-73.82650254 1.74684522 -55.00996791 1.33766569 -35.60522461 -2.87109375 C-23.47344714 -5.49489542 -11.50937881 -5.04571167 0 0 Z " fill="#EFEFEF" transform="translate(357,454)"/>
<path d="M0 0 C13.1875 0.4375 13.1875 0.4375 17.73364258 0.59008789 C26.51335397 0.87433975 35.29075356 1.06119281 44.07421875 1.18359375 C47.15541732 1.23197169 50.23659912 1.28132193 53.31777954 1.33084106 C55.35805387 1.36031108 57.39841208 1.3844497 59.43881226 1.40328979 C62.32153887 1.43026785 65.20350111 1.47512245 68.0859375 1.5234375 C69.39476143 1.52826393 69.39476143 1.52826393 70.73002625 1.53318787 C73.14990234 1.58349609 73.14990234 1.58349609 77 2 C80.25965835 6.88948753 79.13334413 12.60275872 78.94335938 18.30615234 C78.87525145 20.49193027 78.83913662 22.67674625 78.8046875 24.86328125 C78.76497662 26.25266144 78.72337326 27.64198911 78.6796875 29.03125 C78.62917236 30.92713867 78.62917236 30.92713867 78.57763672 32.86132812 C78 36 78 36 76.21606445 37.89208984 C73.94507291 39.02746052 72.38047486 39.4779069 69.86328125 39.6953125 C68.99888428 39.77088379 68.1344873 39.84645508 67.24389648 39.92431641 C66.27653564 39.99054199 65.3091748 40.05676758 64.3125 40.125 C62.76767944 40.24174072 62.76767944 40.24174072 61.19165039 40.36083984 C40.84321183 41.71032962 20.38385448 41.69250239 0 42 C0 28.14 0 14.28 0 0 Z " fill="#008CE2" transform="translate(259,122)"/>
<path d="M0 0 C4.09052732 -0.02642276 8.18106472 -0.04462161 12.2716434 -0.06098223 C14.17951906 -0.07041799 16.08738118 -0.08335992 17.99520659 -0.1001153 C20.61013779 -0.12265672 23.22483926 -0.13260441 25.83985162 -0.13966513 C26.97266399 -0.15410429 26.97266399 -0.15410429 28.12836146 -0.16883516 C35.38748305 -0.16329658 42.05725184 0.70975413 47.4108355 6.0633378 C49.21419619 8.60443695 49.45171428 9.62389096 49.1608355 12.7508378 C48.7895855 13.8955253 48.7895855 13.8955253 48.4108355 15.0633378 C40.6220501 18.9577305 25.88190991 15.80162376 17.15790582 15.26377726 C14.88574243 15.12429743 12.61320855 14.99283318 10.340523 14.86216593 C8.87434917 14.77474372 7.40820217 14.68686985 5.9420855 14.59849405 C3.98625543 14.48066568 3.98625543 14.48066568 1.99091363 14.36045694 C-1.25656523 14.090941 -4.3782175 13.59998706 -7.5891645 13.0633378 C-9.98269837 12.86638416 -12.37907473 12.70247255 -14.7766645 12.5633378 C-15.46418799 12.52304956 -16.15171149 12.48276133 -16.86006904 12.44125223 C-19.10290108 12.31145428 -21.34599181 12.18709885 -23.5891645 12.0633378 C-24.35750617 12.01976145 -25.12584785 11.97618509 -25.9174726 11.93128824 C-38.24235239 11.2340179 -50.56504722 10.72507418 -62.90557075 10.40513468 C-64.05154731 10.37355265 -65.19752387 10.34197062 -66.378227 10.30943155 C-67.36516547 10.28550333 -68.35210395 10.26157511 -69.36894965 10.23692179 C-71.90296983 10.10032676 -74.35185785 9.86431159 -76.86650825 9.55625772 C-81.70960024 8.99572435 -86.49124606 8.91926981 -91.362602 8.9305253 C-92.7314051 8.92834246 -92.7314051 8.92834246 -94.12786078 8.92611551 C-97.07333827 8.92388296 -100.01869864 8.93012759 -102.9641645 8.9383378 C-104.4827909 8.94116266 -104.4827909 8.94116266 -106.03209662 8.94404459 C-130.26406239 8.9969549 -154.27754177 9.97317005 -178.42851996 11.95908976 C-186.5155668 12.62165277 -194.59963505 13.21743911 -202.70244575 13.65318155 C-203.83619636 13.71529825 -203.83619636 13.71529825 -204.99285102 13.77866983 C-212.52568792 14.16215366 -220.04832264 14.15694825 -227.5891645 14.0633378 C-228.69256114 9.64975121 -228.6262172 5.58376824 -228.5891645 1.0633378 C-200.79502793 0.93169326 -173.00088592 0.80125569 -145.20673728 0.67218637 C-132.29628717 0.61220637 -119.385839 0.5518574 -106.47539496 0.4905839 C-95.19935868 0.43706836 -83.92331915 0.384302 -72.64727545 0.33237076 C-66.69791238 0.30494682 -60.74855136 0.27719177 -54.7991941 0.24853373 C-42.82863849 0.19109378 -30.85810262 0.13909975 -18.88747263 0.09976768 C-12.59154046 0.07798422 -6.29581911 0.04337811 0 0 Z " fill="#AFAFAF" transform="translate(381.58916449546814,57.93666219711304)"/>
<path d="M0 0 C5.46363159 2.53232403 9.11003097 5.05089373 12.43359375 10.08984375 C14.48467359 16.30967676 14.62921768 24.3075962 11.99609375 30.33984375 C8.82065319 35.78835148 3.43950673 41.08787276 -2.56640625 43.08984375 C-11.12146336 44.01676823 -16.31045904 41.89489986 -23.31640625 37.27734375 C-28.34982737 32.38373988 -29.84620847 28.58841079 -30.19140625 21.65234375 C-29.99807925 16.21424238 -29.10854957 12.87650359 -25.484375 8.8046875 C-18.23391479 2.3220968 -9.91349861 -3.51574608 0 0 Z " fill="#040404" transform="translate(263.56640625,329.91015625)"/>
<path d="M0 0 C9.04079666 0.04034362 18.08106358 0.09743836 27.12153912 0.18390274 C31.31956721 0.22338613 35.51738528 0.25557021 39.71557617 0.27099609 C43.76828671 0.28615728 47.8204199 0.32059246 51.87287331 0.36830902 C53.41774282 0.38312852 54.96269476 0.39104135 56.50763512 0.39188385 C58.67457766 0.39425373 60.83992486 0.4213306 63.0065918 0.45410156 C64.85525093 0.46742523 64.85525093 0.46742523 66.74125671 0.48101807 C70.6163286 1.09815545 72.29921289 2.18778251 75 5 C75.62906197 8.91416338 75.67937479 10.99452532 73.4375 14.3125 C68.5312147 17.70915905 63.17171041 18.25018499 57.33032227 18.22705078 C56.04952286 18.22689972 54.76872345 18.22674866 53.44911194 18.22659302 C52.07154175 18.21638289 50.69397319 18.20595096 49.31640625 18.1953125 C47.89151712 18.19157721 46.46662541 18.18873267 45.04173279 18.18673706 C41.31154145 18.17914121 37.5815086 18.15952809 33.85137939 18.1373291 C30.0370091 18.11678291 26.22261293 18.10771667 22.40820312 18.09765625 C14.93872185 18.07627786 7.46940342 18.04112933 0 18 C0 12.06 0 6.12 0 0 Z " fill="#008CE2" transform="translate(258,251)"/>
<path d="M0 0 C1.05203613 -0.01135986 2.10407227 -0.02271973 3.18798828 -0.03442383 C4.09540771 -0.04594482 5.00282715 -0.05746582 5.93774414 -0.06933594 C11.57351514 0.20797547 16.01789481 1.56378895 19.97314453 5.61791992 C23.12423098 10.73843539 22.65694014 15.06959544 22.66064453 20.99291992 C22.67289062 21.9887207 22.68513672 22.98452148 22.69775391 24.01049805 C22.71781641 34.31593728 22.32015614 45.09568712 14.78564453 52.80541992 C8.77055617 57.42053964 1.17018123 57.38736876 -6.08935547 57.30541992 C-6.95979492 57.29865234 -7.83023438 57.29188477 -8.72705078 57.28491211 C-33.48642757 56.89450023 -33.48642757 56.89450023 -41.40185547 49.24291992 C-45.04927781 42.15070981 -44.8930216 34.99839676 -44.90185547 27.18041992 C-44.92634766 26.04733398 -44.95083984 24.91424805 -44.97607422 23.74682617 C-44.9998332 16.91215814 -44.59550675 10.77507545 -40.52685547 5.05541992 C-36.6228694 1.14060989 -33.92311996 0.53846988 -28.46044922 0.44604492 C-27.44834129 0.42124054 -27.44834129 0.42124054 -26.41578674 0.39593506 C-24.2652195 0.34764497 -22.11534583 0.32620711 -19.96435547 0.30541992 C-18.54700193 0.27721872 -17.12968174 0.24728557 -15.71240234 0.21557617 C-10.47524743 0.10637224 -5.237564 0.08230147 0 0 Z M-36.52685547 11.05541992 C-41.28519868 18.35154617 -40.56132956 28.00004354 -38.87060547 36.26245117 C-37.22267993 41.45483723 -35.13555055 45.78120258 -30.65966797 49.03979492 C-26.11727689 51.20283829 -21.47613277 51.01460114 -16.52685547 51.05541992 C-14.80541257 51.12621077 -13.0840635 51.19930495 -11.36279297 51.27416992 C-9.50090283 51.32934429 -7.63891806 51.38140973 -5.77685547 51.43041992 C-4.88981934 51.46893066 -4.0027832 51.50744141 -3.08886719 51.54711914 C3.28978376 51.6247183 7.58015592 50.23367673 12.47314453 46.05541992 C17.88137874 38.30361756 18.30139248 27.19124577 17.47314453 18.05541992 C16.44046524 13.58519175 15.4227696 10.6885033 11.47314453 8.05541992 C8.4733348 7.59295827 8.4733348 7.59295827 5.03955078 7.42260742 C3.74984375 7.33881836 2.46013672 7.2550293 1.13134766 7.16870117 C0.45724854 7.1295459 -0.21685059 7.09039062 -0.91137695 7.05004883 C-2.92636994 6.93263337 -4.94050647 6.80080454 -6.95458984 6.66870117 C-23.20997977 4.31432312 -23.20997977 4.31432312 -36.52685547 11.05541992 Z " fill="#000607" transform="translate(397.52685546875,225.944580078125)"/>
<path d="M0 0 C2.475 0.495 2.475 0.495 5 1 C6.23931815 7.66133504 6.15936437 14.24635466 6 21 C5.98211426 21.84127441 5.96422852 22.68254883 5.94580078 23.54931641 C5.87780115 26.34623543 5.78574994 29.14149052 5.6875 31.9375 C5.66510254 32.83742676 5.64270508 33.73735352 5.61962891 34.66455078 C5.34003706 41.43421592 4.18546549 45.86310041 -0.8125 50.75 C-6.48093967 54.75125153 -11.22639593 55.53758762 -18 55 C-21.42945937 53.62821625 -22.72964835 52.37849231 -24.875 49.375 C-26.56795644 44.29613069 -26.36894631 39.8849695 -24.0546875 35.0078125 C-21.13637542 30.50472167 -17.8907746 28.14507658 -13 26 C-8.86413053 25.51342712 -6.6022031 26.07162575 -3 28 C-2.98018066 27.25838623 -2.96036133 26.51677246 -2.93994141 25.75268555 C-2.84477072 22.39726166 -2.73505906 19.04246714 -2.625 15.6875 C-2.5940625 14.52025391 -2.563125 13.35300781 -2.53125 12.15039062 C-2.49257812 11.03212891 -2.45390625 9.91386719 -2.4140625 8.76171875 C-2.3826416 7.73006592 -2.3512207 6.69841309 -2.31884766 5.63549805 C-2 3 -2 3 0 0 Z " fill="#050505" transform="translate(185,140)"/>
<path d="M0 0 C3.45383685 2.35488876 4.9543281 4.07646328 6.75 7.875 C7.54341801 12.78123792 7.41568195 17.27450796 5.125 21.75 C2.13519492 25.68395405 -0.36229799 28.24842315 -5.3203125 29.32421875 C-11.09987465 29.77732031 -14.78823675 27.93701385 -19.36328125 24.51171875 C-23.20668867 21.1775827 -24.1254189 18.99622993 -24.6875 13.9375 C-24.50138878 9.64075847 -23.08290471 7.15520545 -20.25 3.875 C-13.79197369 -1.00146885 -7.7448751 -2.68091831 0 0 Z " fill="#6B6B6B" transform="translate(263.25,337.125)"/>
<path d="M0 0 C3.10795355 2.5468978 5.74239186 5.88845789 6.23828125 9.953125 C6.41708799 15.486723 5.86787679 18.72497829 2 23 C-2.92626522 26.51876087 -8.13470499 26.89105483 -14 26 C-17.65693859 23.86678582 -19.40110861 21.85819445 -21 18 C-21.64999695 13.35176602 -21.69016426 9.32281484 -19.5 5.125 C-13.63771747 0.14205985 -7.66329654 -2.81717377 0 0 Z " fill="#040404" transform="translate(149,168)"/>
<path d="M0 0 C2.6875 1.6875 2.6875 1.6875 4.6875 4.6875 C5.165428 8.35161465 4.99470735 10.15910336 3.125 13.375 C-0.52303136 16.83595283 -4.21512975 18.5536253 -9.25 18.875 C-10.2709375 18.7821875 -10.2709375 18.7821875 -11.3125 18.6875 C-11.3125 19.3475 -11.3125 20.0075 -11.3125 20.6875 C-7.59820102 21.8036656 -3.92088492 21.9999195 -0.0625 22.25 C1.20078125 22.33378906 2.4640625 22.41757813 3.765625 22.50390625 C5.21195313 22.59478516 5.21195313 22.59478516 6.6875 22.6875 C6.3125 25.125 6.3125 25.125 5.6875 27.6875 C1.23277138 29.91486431 -4.47896185 29.18440579 -9.3125 28.6875 C-13.85641985 27.0606645 -16.53356612 24.78287577 -19.3125 20.875 C-20.8232104 16.05961059 -21.38504686 12.15479915 -19.36328125 7.50390625 C-14.76778726 -0.39686418 -9.02795871 -3.57711572 0 0 Z " fill="#050505" transform="translate(217.3125,165.3125)"/>
<path d="M0 0 C1.06710205 -0.00249756 2.1342041 -0.00499512 3.23364258 -0.00756836 C6.33157517 -0.01350993 9.42940982 -0.01194402 12.52734375 -0.0078125 C13.45481918 -0.00979645 14.38229462 -0.0117804 15.33787537 -0.01382446 C20.98860787 0.0060769 26.45638444 0.40744571 32.0625 1.125 C32.0625 2.445 32.0625 3.765 32.0625 5.125 C25.80196858 7.88280371 20.86186575 8.51733857 14.06640625 8.3359375 C13.11528458 8.32291595 12.1641629 8.30989441 11.18421936 8.29647827 C9.1680534 8.26713615 7.15197677 8.23095447 5.13604736 8.18835449 C2.10614305 8.12589961 -0.92326342 8.08540714 -3.95361328 8.05175781 C-8.96157239 7.99296429 -13.968525 7.90713518 -18.97583008 7.80761719 C-21.02230454 7.76862728 -23.0688643 7.73391804 -25.11547852 7.703125 C-28.13061604 7.65760991 -31.14529099 7.59976989 -34.16015625 7.5390625 C-35.07152847 7.52751129 -35.9829007 7.51596008 -36.92189026 7.50405884 C-41.34931748 7.40051017 -44.9133665 7.20026078 -48.9375 5.125 C-48.9375 3.805 -48.9375 2.485 -48.9375 1.125 C-32.62824872 0.12355475 -16.33438568 0.01346207 0 0 Z " fill="#010B0C" transform="translate(313.9375,196.875)"/>
<path d="M0 0 C1.86537218 -0.00681459 3.73073513 -0.01704693 5.59606934 -0.03076172 C8.23281761 -0.04867113 10.86924036 -0.05292069 13.50604248 -0.05322266 C14.28913284 -0.06036789 15.07222321 -0.06751312 15.87904358 -0.07487488 C20.34864877 -0.05641113 23.90616621 0.49039527 28.11932373 2.17724609 C27.78932373 3.49724609 27.45932373 4.81724609 27.11932373 6.17724609 C21.43241016 8.11631501 16.47682933 8.45051299 10.49432373 8.36474609 C9.51173584 8.35685059 8.52914795 8.34895508 7.51678467 8.34082031 C4.47979903 8.30917576 1.44327967 8.26411402 -1.59344482 8.21368408 C-4.17514361 8.17255492 -6.75689372 8.13744016 -9.33868408 8.10253906 C-14.40684903 8.03235383 -19.47466334 7.94868478 -24.54248047 7.85684204 C-26.59943945 7.82047724 -28.65645007 7.78692315 -30.71350098 7.75619507 C-33.63928885 7.71082876 -36.56456129 7.65270479 -39.49005127 7.59130859 C-40.37766144 7.57974228 -41.26527161 7.56817596 -42.17977905 7.55625916 C-43.4156929 7.52647728 -43.4156929 7.52647728 -44.67657471 7.49609375 C-45.39472351 7.48277008 -46.11287231 7.46944641 -46.8527832 7.45571899 C-49.18650523 7.13524927 -50.84019394 6.32839126 -52.88067627 5.17724609 C-52.88067627 3.85724609 -52.88067627 2.53724609 -52.88067627 1.17724609 C-35.25670025 0.49253696 -17.63779591 0.05779269 0 0 Z " fill="#000B0C" transform="translate(317.88067626953125,211.82275390625)"/>
<path d="M0 0 C9.24946424 -0.02322795 18.49891835 -0.04096822 27.74840546 -0.05181217 C32.04386937 -0.05701819 36.33931324 -0.0640742 40.63476562 -0.07543945 C44.78447159 -0.08634967 48.93415835 -0.092294 53.08387756 -0.09487724 C54.66260582 -0.09671688 56.24133308 -0.10030911 57.8200531 -0.10573006 C60.04086534 -0.11304861 62.26159941 -0.11398642 64.48242188 -0.11352539 C65.74372925 -0.115746 67.00503662 -0.11796661 68.30456543 -0.12025452 C72.27319045 0.00888999 76.06971113 0.45122531 80 1 C80 2.32 80 3.64 80 5 C73.70332797 7.78379185 67.73247445 8.20962359 60.96484375 8.1171875 C59.65981148 8.10780655 59.65981148 8.10780655 58.32841492 8.09823608 C55.55208677 8.0748401 52.77615196 8.0388493 50 8 C49.10206726 7.98900269 48.20413452 7.97800537 47.2789917 7.9666748 C41.86573937 7.89832782 36.45362986 7.80155966 31.04125977 7.68261719 C29.20247259 7.64379158 27.3635953 7.60904504 25.5246582 7.578125 C22.80394375 7.53225818 20.08370712 7.47447557 17.36328125 7.4140625 C16.55377518 7.40251129 15.7442691 7.39096008 14.91023254 7.37905884 C9.40695754 7.23808022 4.32805562 6.37442226 -1 5 C-0.67 3.35 -0.34 1.7 0 0 Z " fill="#00090A" transform="translate(266,182)"/>
<path d="M0 0 C26.4 0 52.8 0 80 0 C80.495 1.98 80.495 1.98 81 4 C73.09683208 7.24946857 65.86431855 7.44181904 57.40234375 7.3984375 C55.99947458 7.40046321 54.59660645 7.40337877 53.19374084 7.40713501 C50.26797358 7.41153359 47.34248291 7.40520677 44.41674805 7.39111328 C40.68575285 7.37400656 36.95540458 7.38388711 33.22443295 7.40183067 C30.33231314 7.4127222 27.44034427 7.40919802 24.54821968 7.4014473 C23.17324304 7.39946091 21.79825223 7.40184905 20.42329216 7.40888596 C12.94209201 7.43878749 6.80908704 7.24426338 0 4 C0 2.68 0 1.36 0 0 Z " fill="#00090A" transform="translate(265,228)"/>
<path d="M0 0 C19.8 0 39.6 0 60 0 C60 1.65 60 3.3 60 5 C56.8584327 6.83539197 54.56476908 7.25225658 50.94360352 7.25878906 C49.43667686 7.26824554 49.43667686 7.26824554 47.89930725 7.27789307 C46.82007492 7.2738446 45.74084259 7.26979614 44.62890625 7.265625 C42.95718605 7.26849518 42.95718605 7.26849518 41.25169373 7.27142334 C38.89557672 7.27278388 36.53945219 7.26909659 34.18334961 7.26074219 C30.5797436 7.25005116 26.97663726 7.26063699 23.37304688 7.2734375 C21.08333223 7.27211568 18.7936179 7.26955284 16.50390625 7.265625 C14.8880941 7.27169769 14.8880941 7.27169769 13.23963928 7.27789307 C12.23186935 7.27158875 11.22409943 7.26528442 10.18579102 7.25878906 C9.30294937 7.25719788 8.42010773 7.25560669 7.51051331 7.25396729 C4.7136705 6.97103448 2.55117553 6.15351155 0 5 C0 3.35 0 1.7 0 0 Z " fill="#010D0E" transform="translate(357,122)"/>
<path d="M0 0 C1.84049355 0.00503533 3.68098846 0.00959457 5.52148438 0.01367188 C9.95185782 0.02449288 14.38216293 0.04164003 18.8125 0.0625 C19.4725 1.3825 20.1325 2.7025 20.8125 4.0625 C16.39392523 6.80918162 13.2554683 8.20144797 8.03735352 8.1159668 C6.58553429 8.09550545 6.58553429 8.09550545 5.10438538 8.07463074 C4.06060226 8.05386978 3.01681915 8.03310883 1.94140625 8.01171875 C0.86753159 7.9928511 -0.20634308 7.97398346 -1.3127594 7.95454407 C-3.58494252 7.91265323 -5.85707465 7.86791496 -8.12915039 7.82055664 C-11.60748215 7.75035356 -15.08582842 7.69601209 -18.56445312 7.64257812 C-20.77085232 7.59992957 -22.97723359 7.55634107 -25.18359375 7.51171875 C-26.22535263 7.49703049 -27.26711151 7.48234222 -28.34043884 7.46720886 C-29.31147049 7.44411148 -30.28250214 7.4210141 -31.28295898 7.3972168 C-32.13550766 7.38087692 -32.98805634 7.36453705 -33.86643982 7.34770203 C-36.36055585 7.04123563 -38.02496515 6.312773 -40.1875 5.0625 C-40.1875 3.7425 -40.1875 2.4225 -40.1875 1.0625 C-26.77630907 0.2111634 -13.43593534 -0.06525287 0 0 Z " fill="#000A0B" transform="translate(397.1875,181.9375)"/>
<path d="M0 0 C1.63160973 -0.00682852 3.26320878 -0.01707504 4.89477539 -0.03076172 C7.21669656 -0.04869799 9.53824686 -0.05292148 11.86022949 -0.05322266 C12.56049759 -0.06036789 13.26076569 -0.06751312 13.98225403 -0.07487488 C17.62212572 -0.05795855 20.291839 0.18243697 23.38757324 2.17724609 C22.76257324 4.05224609 22.76257324 4.05224609 21.38757324 6.17724609 C16.85299282 8.11450372 12.98806675 8.40273352 8.09069824 8.32568359 C7.05359711 8.31291885 7.05359711 8.31291885 5.99554443 8.29989624 C3.79257142 8.2695994 1.59025069 8.22408839 -0.61242676 8.17724609 C-2.05447616 8.15364715 -3.49653357 8.13053175 -4.93859863 8.10791016 C-8.52603857 8.04634453 -12.11228017 7.95946761 -15.69885254 7.85986328 C-17.16261509 7.82088247 -18.62649656 7.78617099 -20.0904541 7.75537109 C-22.2491598 7.70981476 -24.40722454 7.65198611 -26.56555176 7.59130859 C-27.82528809 7.5598877 -29.08502441 7.5284668 -30.38293457 7.49609375 C-33.36866395 7.20131279 -35.09963128 6.74675987 -37.61242676 5.17724609 C-37.61242676 3.85724609 -37.61242676 2.53724609 -37.61242676 1.17724609 C-25.08009297 0.35352462 -12.55680028 0.04744776 0 0 Z " fill="#000A0B" transform="translate(394.6124267578125,166.82275390625)"/>
<path d="M0 0 C0.66 1.32 1.32 2.64 2 4 C-2.41857477 6.74668162 -5.5570317 8.13894797 -10.77514648 8.0534668 C-12.22696571 8.03300545 -12.22696571 8.03300545 -13.70811462 8.01213074 C-14.75189774 7.99136978 -15.79568085 7.97060883 -16.87109375 7.94921875 C-17.94496841 7.9303511 -19.01884308 7.91148346 -20.1252594 7.89204407 C-22.39744252 7.85015323 -24.66957465 7.80541496 -26.94165039 7.75805664 C-30.41998215 7.68785356 -33.89832842 7.63351209 -37.37695312 7.58007812 C-39.58335232 7.53742957 -41.78973359 7.49384107 -43.99609375 7.44921875 C-45.03785263 7.43453049 -46.07961151 7.41984222 -47.15293884 7.40470886 C-48.12397049 7.38161148 -49.09500214 7.3585141 -50.09545898 7.3347168 C-50.94800766 7.31837692 -51.80055634 7.30203705 -52.67893982 7.28520203 C-55.17305585 6.97873563 -56.83746515 6.250273 -59 5 C-59 3.68 -59 2.36 -59 1 C-39.33812841 -0.22476619 -19.68962926 -0.10253372 0 0 Z " fill="#000A0B" transform="translate(416,152)"/>
<path d="M0 0 C19.8 0 39.6 0 60 0 C60 1.65 60 3.3 60 5 C56.49624944 6.5793332 53.75835132 7.25170772 49.921875 7.25878906 C48.44509277 7.26824554 48.44509277 7.26824554 46.93847656 7.27789307 C45.8862793 7.2738446 44.83408203 7.26979614 43.75 7.265625 C42.65913086 7.26753845 41.56826172 7.2694519 40.44433594 7.27142334 C38.14127369 7.27278244 35.83820371 7.26910521 33.53515625 7.26074219 C30.01284555 7.25003903 26.49104487 7.26064704 22.96875 7.2734375 C20.72916554 7.27211586 18.4895814 7.26955336 16.25 7.265625 C14.6717041 7.27169769 14.6717041 7.27169769 13.06152344 7.27789307 C12.07700195 7.27158875 11.09248047 7.26528442 10.078125 7.25878906 C9.21606445 7.25719788 8.35400391 7.25560669 7.46582031 7.25396729 C4.69129524 6.96820494 2.5326874 6.14162159 0 5 C0 3.35 0 1.7 0 0 Z " fill="#000809" transform="translate(357,212)"/>
<path d="M0 0 C19.47 0 38.94 0 59 0 C59.66 1.32 60.32 2.64 61 4 C55.37701794 7.60125577 50.35404912 7.42138413 43.90625 7.36328125 C42.30892029 7.36402901 42.30892029 7.36402901 40.67932129 7.36479187 C38.43349333 7.36245701 36.18766248 7.3527633 33.94189453 7.33618164 C30.51180526 7.31258122 27.08249368 7.31562663 23.65234375 7.32226562 C21.46614122 7.31668858 19.27994195 7.30957853 17.09375 7.30078125 C16.07172485 7.30169266 15.04969971 7.30260406 13.9967041 7.30354309 C8.9391904 7.25338869 4.73399821 7.01375305 0 5 C0 3.35 0 1.7 0 0 Z " fill="#000708" transform="translate(357,197)"/>
<path d="M0 0 C19.47 0 38.94 0 59 0 C59.66 1.32 60.32 2.64 61 4 C55.37701794 7.60125577 50.35404912 7.42138413 43.90625 7.36328125 C42.30892029 7.36402901 42.30892029 7.36402901 40.67932129 7.36479187 C38.43349333 7.36245701 36.18766248 7.3527633 33.94189453 7.33618164 C30.51180526 7.31258122 27.08249368 7.31562663 23.65234375 7.32226562 C21.46614122 7.31668858 19.27994195 7.30957853 17.09375 7.30078125 C16.07172485 7.30169266 15.04969971 7.30260406 13.9967041 7.30354309 C8.9391904 7.25338869 4.73399821 7.01375305 0 5 C0 3.35 0 1.7 0 0 Z " fill="#000607" transform="translate(357,137)"/>
<path d="M0 0 C0.95648438 -0.02578125 1.91296875 -0.0515625 2.8984375 -0.078125 C6.00392147 0.29560086 7.33036066 1.18373709 9.625 3.25 C9.295 4.57 8.965 5.89 8.625 7.25 C7.90054688 7.20359375 7.17609375 7.1571875 6.4296875 7.109375 C1.7318845 6.93399035 -1.63211312 6.92979014 -6 8.8125 C-9.43521208 12.3381124 -9.375 15.50565195 -9.375 20.25 C-5.81454823 21.43681726 -2.93691663 21.34689832 0.8125 21.3125 C2.08480469 21.30347656 3.35710937 21.29445312 4.66796875 21.28515625 C5.64378906 21.27355469 6.61960937 21.26195312 7.625 21.25 C7.955 22.57 8.285 23.89 8.625 25.25 C5.52920249 28.55218401 3.17019729 29.58828546 -1.25 29.75 C-6.40636623 29.51980508 -9.26645783 28.37249205 -13.375 25.25 C-16.19660438 21.99430264 -17.26520665 20.01855344 -17.875 15.75 C-16.89376149 8.8813304 -12.62554252 5.24497801 -7.375 1.25 C-4.80935275 -0.03282363 -2.86466931 0.04608047 0 0 Z " fill="#050505" transform="translate(113.375,163.75)"/>
<path d="M0 0 C5.56675625 0.41439873 8.42717454 1.59656112 12.625 5.25 C13.52476562 6.01828125 14.42453125 6.7865625 15.3515625 7.578125 C20.72785025 12.49449432 20.72785025 12.49449432 23 15 C23.12686025 21.08929206 19.72138248 24.18298516 15.75 28.375 C14.38875 29.674375 14.38875 29.674375 13 31 C12.04867187 31.94359375 12.04867187 31.94359375 11.078125 32.90625 C10.04945313 33.88078125 10.04945313 33.88078125 9 34.875 C8.0409375 35.79925781 8.0409375 35.79925781 7.0625 36.7421875 C5 38 5 38 2.25 37.6953125 C1.5075 37.46585938 0.765 37.23640625 0 37 C1.07916343 28.92729692 7.87070614 23.78383911 14 19 C12.60228275 15.64980144 11.10739994 14.09390826 8.125 12.0625 C4.83033593 9.68435157 2.19984205 7.48308324 0 4 C0 2.68 0 1.36 0 0 Z " fill="#040404" transform="translate(149,110)"/>
<path d="M0 0 C5.56675625 0.41439873 8.42717454 1.59656112 12.625 5.25 C13.52476562 6.01828125 14.42453125 6.7865625 15.3515625 7.578125 C20.72785025 12.49449432 20.72785025 12.49449432 23 15 C23.12686025 21.08929206 19.72138248 24.18298516 15.75 28.375 C14.38875 29.674375 14.38875 29.674375 13 31 C12.04867187 31.94359375 12.04867187 31.94359375 11.078125 32.90625 C10.04945313 33.88078125 10.04945313 33.88078125 9 34.875 C8.0409375 35.79925781 8.0409375 35.79925781 7.0625 36.7421875 C5 38 5 38 2.25 37.6953125 C1.5075 37.46585937 0.765 37.23640625 0 37 C1.07916343 28.92729692 7.87070614 23.78383911 14 19 C12.60228275 15.64980144 11.10739994 14.09390826 8.125 12.0625 C4.83033593 9.68435157 2.19984205 7.48308324 0 4 C0 2.68 0 1.36 0 0 Z " fill="#040404" transform="translate(149,219)"/>
<path d="M0 0 C1.65 0 3.3 0 5 0 C4.70949297 7.90824694 2.2303789 13.00186651 -1.75 19.75 C-5.80504059 26.86000442 -9.39769226 33.64207998 -11.9375 41.44140625 C-13.17994536 44.43332431 -14.88552305 46.56394635 -17 49 C-17.99 48.67 -18.98 48.34 -20 48 C-20.33165284 42.44120997 -19.30616325 38.22980116 -17.125 33.1875 C-16.81981445 32.46264404 -16.51462891 31.73778809 -16.20019531 30.9909668 C-12.72729583 22.98667058 -8.42265604 15.45972619 -4.07226562 7.90869141 C-2.61768098 5.31945125 -1.29582299 2.67158312 0 0 Z " fill="#050505" transform="translate(144,204)"/>
<path d="M0 0 C1.65 0 3.3 0 5 0 C4.72717002 6.66608168 3.26968185 11.19090373 -0.25 16.8125 C-3.62544115 22.48478388 -6.44323612 28.0878826 -8.88671875 34.234375 C-10.03077406 37.07644925 -11.25285308 39.85535395 -12.5625 42.625 C-12.93503906 43.42164063 -13.30757812 44.21828125 -13.69140625 45.0390625 C-15.20670138 47.30974357 -16.48988032 48.01293391 -19 49 C-20 48 -20 48 -20.2421875 44.92578125 C-19.97374917 40.5744825 -18.83302951 37.13603489 -17.125 33.1875 C-16.81981445 32.46264404 -16.51462891 31.73778809 -16.20019531 30.9909668 C-12.72729583 22.98667058 -8.42265604 15.45972619 -4.07226562 7.90869141 C-2.61768098 5.31945125 -1.29582299 2.67158312 0 0 Z " fill="#050505" transform="translate(144,95)"/>
<path d="M0 0 C-1.16251861 6.85274128 -7.62615001 12.09174546 -13 16 C-11.65396955 19.03867819 -10.19575827 21.00385612 -7.7421875 23.234375 C-7.11699219 23.80800781 -6.49179688 24.38164062 -5.84765625 24.97265625 C-5.19667969 25.55917969 -4.54570313 26.14570313 -3.875 26.75 C-3.21628906 27.35199219 -2.55757812 27.95398438 -1.87890625 28.57421875 C-0.25731491 30.05480215 1.36902454 31.52977125 3 33 C2.67 34.32 2.34 35.64 2 37 C-3.50416365 37.11965573 -5.97794243 35.49539911 -10.0625 31.8125 C-11.71641225 30.21666406 -13.36281405 28.61299108 -15 27 C-15.65097656 26.4328125 -16.30195312 25.865625 -16.97265625 25.28125 C-19.60370688 22.94253833 -20.90845237 21.40780308 -21.6875 17.9375 C-20.77581612 14.04212343 -18.8837058 12.7419506 -16 10 C-14.71029297 8.69289062 -14.71029297 8.69289062 -13.39453125 7.359375 C-12.54246094 6.49828125 -11.69039062 5.6371875 -10.8125 4.75 C-9.52279297 3.44289062 -9.52279297 3.44289062 -8.20703125 2.109375 C-5.07254683 -0.88641542 -4.04962548 -1.21488764 0 0 Z " fill="#030303" transform="translate(114,216)"/>
<path d="M0 0 C-1.16251861 6.85274128 -7.62615001 12.09174546 -13 16 C-11.65396955 19.03867819 -10.19575827 21.00385612 -7.7421875 23.234375 C-7.11699219 23.80800781 -6.49179688 24.38164062 -5.84765625 24.97265625 C-5.19667969 25.55917969 -4.54570313 26.14570313 -3.875 26.75 C-3.21628906 27.35199219 -2.55757812 27.95398438 -1.87890625 28.57421875 C-0.25731491 30.05480215 1.36902454 31.52977125 3 33 C2.67 34.32 2.34 35.64 2 37 C-3.50416365 37.11965573 -5.97794243 35.49539911 -10.0625 31.8125 C-11.71641225 30.21666406 -13.36281405 28.61299108 -15 27 C-15.65097656 26.4328125 -16.30195312 25.865625 -16.97265625 25.28125 C-19.60370688 22.94253833 -20.90845237 21.40780308 -21.6875 17.9375 C-20.77581612 14.04212343 -18.8837058 12.7419506 -16 10 C-14.71029297 8.69289063 -14.71029297 8.69289063 -13.39453125 7.359375 C-12.54246094 6.49828125 -11.69039062 5.6371875 -10.8125 4.75 C-9.52279297 3.44289063 -9.52279297 3.44289063 -8.20703125 2.109375 C-5.07254683 -0.88641542 -4.04962548 -1.21488764 0 0 Z " fill="#030303" transform="translate(114,107)"/>
<path d="M0 0 C0 4.62 0 9.24 0 14 C-6.6 14 -13.2 14 -20 14 C-21.69930719 8.90207844 -22.2062504 6.15625988 -22 1 C-14.65623924 0.42240084 -7.36901413 -0.14738028 0 0 Z " fill="#F07A22" transform="translate(125,60)"/>
<path d="M0 0 C0 4.62 0 9.24 0 14 C-6.06815666 14.89898617 -11.86403867 15.08522169 -18 15 C-18.66 10.38 -19.32 5.76 -20 1 C-13.2824282 0.31973956 -6.74967503 -0.11065041 0 0 Z " fill="#F3D10E" transform="translate(148,59)"/>
<path d="M0 0 C3.3125 0.875 3.3125 0.875 5.8125 3.4375 C7.62284027 7.58619645 7.59118136 9.55945042 6.3125 13.875 C4.875 16.3125 4.875 16.3125 2.3125 17.875 C-1.0808469 18.36453201 -4.31004532 18.50087224 -7.6875 17.875 C-10.10278925 16.01954601 -10.61128926 15.20270619 -11.3125 12.1875 C-10.13580289 5.9510053 -6.17335347 1.46486353 0 0 Z " fill="#6F6F6F" transform="translate(174.6875,171.125)"/>
<path d="M0 0 C2.48911592 2.81663117 3.79498456 4.92366895 4.5 8.625 C3.8346254 11.78552935 2.45918461 12.97478914 0 15 C-2.87470493 16.43735246 -4.81894588 16.38172649 -8 16 C-10.4375 13.9375 -10.4375 13.9375 -12 11 C-12.07517661 6.7149334 -11.69099731 4.76996843 -8.8125 1.5625 C-5.4410126 -0.31054855 -3.78694101 -0.80573213 0 0 Z " fill="#6D6D6D" transform="translate(145,172)"/>
<path d="M0 0 C0 3.96 0 7.92 0 12 C-8.415 12.495 -8.415 12.495 -17 13 C-15.87016169 6.22097011 -15.87016169 6.22097011 -13.125 3.6875 C-12.61195312 3.19636719 -12.09890625 2.70523438 -11.5703125 2.19921875 C-7.99482708 -0.53131365 -4.29848 -0.0811034 0 0 Z " fill="#F53232" transform="translate(99,61)"/>
<path d="M0 0 C0 4 0 4 -1 5.625 C-4.09977255 7.75609363 -7.33385181 8.21868973 -11 9 C-11.35555556 3.66666667 -11.35555556 3.66666667 -10 1.125 C-6.74686316 -0.70488947 -3.68609891 -0.18128355 0 0 Z " fill="#6D6D6D" transform="translate(215,171)"/>
</svg>
